<?xml version="1.0" encoding="UTF-8" standalone="no"?>
<svg width="53px" height="50px" viewBox="0 0 53 50" version="1.1" xmlns="http://www.w3.org/2000/svg" xmlns:xlink="http://www.w3.org/1999/xlink" xmlns:sketch="http://www.bohemiancoding.com/sketch/ns">
    <!-- Generator: Sketch 3.1.1 (8761) - http://www.bohemiancoding.com/sketch -->
    <title>D3-logo</title>
    <desc>Created with Sketch.</desc>
    <defs></defs>
    <g id="Welcome" stroke="none" stroke-width="1" fill="none" fill-rule="evenodd" sketch:type="MSPage">
        <g id="Chartographer---Overview-2" sketch:type="MSArtboardGroup" transform="translate(-731.000000, -55.000000)" fill="#202B33">
            <g id="2.-Plottable" sketch:type="MSLayerGroup" transform="translate(0.000000, 2.000000)">
                <g id="Chartographer-Title" sketch:type="MSShapeGroup">
                    <g id="D3" transform="translate(731.000000, 53.000000)">
                        <path d="M25.322322,38.8125 C27.9848983,34.8482143 29.5407627,30.0892857 29.5407627,24.9741071 C29.5407627,11.2035714 18.2823051,0 4.44391525,0 L0,0 L0,10.9642857 L4.44391525,10.9642857 C12.2061695,10.9642857 18.5221525,17.2482143 18.5221525,24.9741071 C18.5221525,27.075 18.0514407,29.0705357 17.2142203,30.8616071 C14.9747458,35.6526786 10.0942542,38.9839286 4.44391525,38.9839286 L0,38.9839286 L0,49.9473214 L4.44391525,49.9473214 C13.1413051,49.9473214 20.8182203,45.5196429 25.322322,38.8125" id="Fill-1"></path>
                        <path d="M28.4151864,41.8446429 C29.3682881,40.4098214 29.7132373,39.9223214 30.2710847,38.9017857 L37.703661,38.9017857 C40.0545254,38.9017857 41.9670169,36.9991071 41.9670169,34.6580357 C41.9670169,32.31875 40.0545254,30.4151786 37.703661,30.4151786 L33.304661,30.4151786 C33.6397288,28.6517857 33.8229831,26.8339286 33.8229831,24.9741071 C33.8229831,23.0848214 33.6370339,21.2410714 33.2893898,19.45 C33.2893898,19.45 36.0220339,19.45 36.0220339,19.4508929 L37.703661,19.4508929 C40.0545254,19.4508929 41.9670169,17.5482143 41.9670169,15.2080357 C41.9670169,12.8669643 40.0545254,10.9642857 37.703661,10.9642857 L30.221678,10.9642857 C27.7423559,6.45803571 24.1024237,2.67053571 19.7070169,0 L37.703661,0 C46.1288644,0 52.9829322,6.82232143 52.9829322,15.2080357 C52.9829322,18.9035714 51.6498475,22.2946429 49.437322,24.9321429 C51.6498475,27.5714286 52.9829322,30.9616071 52.9829322,34.6580357 C52.617322,42.7241071 45.8953051,49.8660714 37.703661,49.8660714 L19.8354746,49.8660714 C19.8354746,49.8660714 24.3287966,48.1401786 28.4151864,41.8446429" id="Fill-2"></path>
                    </g>
                </g>
            </g>
        </g>
    </g>
</svg>