<?xml version="1.0" encoding="UTF-8" standalone="no"?>
<svg width="120px" height="31px" viewBox="0 0 120 31" version="1.1" xmlns="http://www.w3.org/2000/svg" xmlns:xlink="http://www.w3.org/1999/xlink" xmlns:sketch="http://www.bohemiancoding.com/sketch/ns">
    <!-- Generator: Sketch 3.1.1 (8761) - http://www.bohemiancoding.com/sketch -->
    <title>palantir-logo</title>
    <desc>Created with Sketch.</desc>
    <defs></defs>
    <g id="Welcome" stroke="none" stroke-width="1" fill="none" fill-rule="evenodd" sketch:type="MSPage">
        <g id="Chartographer---Chartographer" sketch:type="MSArtboardGroup" transform="translate(-30.000000, -959.000000)" fill="#30404D">
            <g id="toolbar" sketch:type="MSLayerGroup">
                <g id="Palantir-Logo" transform="translate(30.000000, 958.540612)" sketch:type="MSShapeGroup">
                    <g id="Logotype" transform="translate(29.227084, 4.101940)">
                        <path d="M0.0911904066,-0.0238408418 L7.54600614,-0.0238408418 C10.2589207,-0.0238408418 12.1055265,0.143045051 13.6329658,1.83574482 C14.7500483,3.02778691 15.2743931,4.60128247 15.2743931,6.34166393 C15.2743931,8.10588622 14.7272507,9.6317001 13.5189778,10.8952647 C12.3335025,12.1111476 10.8060632,12.8978954 6.79368529,12.8978954 L3.19166423,12.8978954 L3.19166423,23.2448208 L0.113988008,23.2448208 L0.113988008,-0.0238408418 L0.0911904066,-0.0238408418 Z M3.16886663,10.1800395 L6.83928049,10.1800395 C8.89106464,10.1800395 11.9915385,10.0131536 11.9915385,6.22245972 C11.9915385,2.57481092 9.09624305,2.57481092 7.47761334,2.57481092 L3.16886663,2.57481092 L3.16886663,10.1800395 L3.16886663,10.1800395 Z" id="p"></path>
                        <path d="M25.2597426,23.2686616 C25.0317666,22.458073 24.9861714,21.6951661 24.9861714,20.8368958 C23.5955177,23.50707 21.4981383,23.7693193 20.1986751,23.7693193 C16.6422492,23.7693193 14.7500483,21.6713252 14.7500483,19.0011509 C14.7500483,17.7137455 15.1832027,15.6395922 17.4629629,14.2568234 C19.1271878,13.2793489 21.5893288,13.1839855 22.8203992,13.1839855 C23.5499225,13.1839855 24.0286721,13.2078264 24.9177786,13.2793489 C24.9177786,11.2767182 24.9177786,10.394607 24.3706362,9.70322262 C23.7778985,8.892634 22.5240304,8.63038474 21.6805192,8.63038474 C18.7624261,8.63038474 18.6028429,10.7283788 18.5572477,11.3720816 L15.6619523,11.3720816 C15.7531427,10.5376521 15.8443331,9.39329168 16.7334396,8.29661296 C17.9189149,6.93768497 20.1074846,6.5562315 21.7261144,6.5562315 C23.9830769,6.5562315 26.3768251,7.2952976 27.2203364,8.94031569 C27.7218836,9.9177902 27.7446812,10.6806971 27.7446812,11.4197632 L27.6306932,19.1680368 C27.6306932,19.4302861 27.6534908,21.5998027 27.8814668,23.2209799 L25.2597426,23.2209799 L25.2597426,23.2686616 Z M23.2535537,15.2819796 C22.090876,15.2819796 17.6681413,15.2819796 17.6681413,18.5720158 C17.6681413,19.597172 18.2836765,21.3852351 20.8826031,21.3852351 C22.3644472,21.3852351 23.4815297,20.7653732 24.1882553,19.6448537 C24.8265882,18.5481749 24.8721834,17.642223 24.9177786,15.377343 C24.3934338,15.3296613 23.9602793,15.2819796 23.2535537,15.2819796 L23.2535537,15.2819796 Z" id="a"></path>
                        <path d="M30.3208102,-0.0238408418 L33.2161056,-0.0238408418 L33.2161056,23.2686616 L30.3208102,23.2686616 L30.3208102,-0.0238408418 L30.3208102,-0.0238408418 Z" id="l"></path>
                        <path d="M45.7091913,23.2686616 C45.5040129,22.458073 45.4356201,21.6951661 45.4356201,20.8368958 C44.0449664,23.50707 41.947587,23.7693193 40.6481237,23.7693193 C37.0916979,23.7693193 35.1766993,21.6713252 35.1766993,19.0011509 C35.1766993,17.7137455 35.6098538,15.6395922 37.8896139,14.2568234 C39.5538388,13.2793489 42.0159798,13.1839855 43.2470503,13.1839855 C43.9765736,13.1839855 44.4553232,13.2078264 45.3444297,13.2793489 C45.3444297,11.2767182 45.3444297,10.394607 44.7972872,9.70322262 C44.2045496,8.892634 42.9506815,8.63038474 42.1071702,8.63038474 C39.1662796,8.63038474 39.029494,10.7283788 38.9838988,11.3720816 L36.0886034,11.3720816 C36.1797938,10.5376521 36.2709842,9.39329168 37.1600907,8.29661296 C38.3227684,6.93768497 40.5341357,6.5562315 42.1527654,6.5562315 C44.409728,6.5562315 46.8034762,7.2952976 47.6469874,8.94031569 C48.1485347,9.9177902 48.1713323,10.6806971 48.1713323,11.4197632 L48.0573443,19.1680368 C48.0573443,19.4302861 48.0801419,21.5998027 48.3081179,23.2209799 L45.7091913,23.2209799 L45.7091913,23.2686616 Z M43.6802047,15.2819796 C42.5175271,15.2819796 38.0947923,15.2819796 38.0947923,18.5720158 C38.0947923,19.597172 38.7103276,21.3852351 41.3092542,21.3852351 C42.7910983,21.3852351 43.9081808,20.7653732 44.6149064,19.6448537 C45.2532393,18.5481749 45.2988345,17.642223 45.3444297,15.377343 C44.8428824,15.3296613 44.409728,15.2819796 43.6802047,15.2819796 L43.6802047,15.2819796 Z" id="a"></path>
                        <path d="M50.7930564,8.94031569 L50.7702588,7.05688918 L53.6655543,7.05688918 L53.6883519,9.67938178 C54.0303159,9.01183821 55.1246008,6.74695824 58.658229,6.74695824 C60.0488827,6.74695824 64.266439,7.2952976 64.266439,12.2541927 L64.266439,23.2448208 L61.3027508,23.2448208 L61.3027508,12.9455771 C61.3027508,11.8727392 61.1887628,10.9191056 60.4592395,10.1800395 C59.7069187,9.44097336 58.7038242,9.08336074 57.7235273,9.08336074 C55.626148,9.08336074 53.6883519,10.6568563 53.6883519,13.9230516 L53.6883519,23.2448208 L50.7930564,23.2448208 L50.7930564,8.94031569 L50.7930564,8.94031569 Z" id="n"></path>
                        <path d="M67.9140553,7.05688918 L67.9140553,3.59996712 L70.7865531,2.6224926 L70.7865531,7.03304834 L74.2517885,7.03304834 L74.2517885,9.25024663 L70.7865531,9.25024663 L70.7865531,18.9057876 C70.7865531,19.7163762 70.7865531,21.0753042 72.8611348,21.0753042 C73.4538725,21.0753042 74.0010149,20.9799408 74.2517885,20.9084183 L74.2517885,23.2686616 C73.7274437,23.364025 72.8839324,23.4593884 71.8352428,23.4593884 C69.190721,23.4593884 67.9140553,22.6487997 67.9140553,20.0024663 L67.9140553,9.29792831 L65.1783431,9.29792831 L65.1783431,7.05688918 L67.9140553,7.05688918 Z" id="t"></path>
                        <path d="M67.9140553,7.05688918 L67.9140553,3.59996712 L70.7865531,2.6224926 L70.7865531,7.03304834 L74.2517885,7.03304834 L74.2517885,9.25024663 L70.7865531,9.25024663 L70.7865531,18.9057876 C70.7865531,19.7163762 70.7865531,21.0753042 72.8611348,21.0753042 C73.4538725,21.0753042 74.0010149,20.9799408 74.2517885,20.9084183 L74.2517885,23.2686616 C73.7274437,23.364025 72.8839324,23.4593884 71.8352428,23.4593884 C69.190721,23.4593884 67.9140553,22.6487997 67.9140553,20.0024663 L67.9140553,9.29792831 L65.1783431,9.29792831 L65.1783431,7.05688918 L67.9140553,7.05688918 Z" id="t-2"></path>
                        <path d="M76.2807751,-0.0238408418 L79.7688081,-0.0238408418 L79.7688081,3.3615587 L76.2807751,3.3615587 L76.2807751,-0.0238408418 L76.2807751,-0.0238408418 Z M76.5999415,7.05688918 L79.4952369,7.05688918 L79.4952369,23.2448208 L76.5999415,23.2448208 L76.5999415,7.05688918 L76.5999415,7.05688918 Z" id="i"></path>
                        <path d="M82.1853539,10.3469254 C82.1853539,9.25024663 82.1169611,8.12972706 82.0257707,7.05688918 L84.9666613,7.05688918 L85.0350541,10.1800395 C85.5821965,7.91515949 87.4515999,7.17609339 88.7282656,6.98536666 C89.5945744,6.86616245 90.2329073,6.89000329 90.7344545,6.91384413 L90.7344545,9.87010852 C90.5748713,9.79858599 90.3924905,9.77474515 90.1873121,9.75090431 C89.9821337,9.72706347 89.6857648,9.72706347 89.3438008,9.72706347 C85.9241606,9.72706347 85.1034469,11.8488984 85.1034469,14.6382769 L85.1034469,23.2448208 L82.1853539,23.2448208 L82.1853539,10.3469254 L82.1853539,10.3469254 Z" id="r"></path>
                    </g>
                    <g id="Logomark" transform="translate(0.046154, 1.002631)">
                        <path d="M11.9507428,-0.0476816837 C5.63940672,-0.0476816837 0.503946984,5.03041763 0.503946984,11.3243999 C0.503946984,17.6183821 5.61540925,22.6964814 11.9507428,22.6964814 C18.2620788,22.6964814 23.3975385,17.6183821 23.3975385,11.3243999 C23.3975385,5.03041763 18.2620788,-0.0476816837 11.9507428,-0.0476816837 L11.9507428,-0.0476816837 Z M11.9507428,19.1918777 C7.58320223,19.1918777 4.03157587,15.6634331 4.03157587,11.3243999 C4.03157587,6.98536666 7.58320223,3.45692207 11.9507428,3.45692207 C16.3182833,3.45692207 19.8699096,6.98536666 19.8699096,11.3243999 C19.8459122,15.6872739 16.3182833,19.1918777 11.9507428,19.1918777 L11.9507428,19.1918777 Z" id="Shape"></path>
                        <path d="M22.1736673,21.6951661 L11.9507428,26.081881 L1.70382075,21.6951661 L0.0239974754,24.9375206 L11.9507428,29.991779 L23.877488,24.9375206 L22.1736673,21.6951661 Z" id="Shape"></path>
                    </g>
                </g>
            </g>
        </g>
    </g>
</svg>